# xmcd
#
# Track frame offsets:
#	150
#	20615
#	41047
#	61513
#	81977
#	102445
#	122799
#	143031
# Disc length: 2173 seconds
# Revision: 1
# Processed by: cddbd v1.5.1PL2 Copyright (c) Steve Scherf et al.
#
# Submitted via: libkcddb 0.21
#
DISCID=67087b08
DTITLE=Pharmacia - Bien-être Relaxation
DYEAR=2002
DGENRE=New Age
TTITLE0=Le lever du jour
TTITLE1=Le sous-bois
TTITLE2=La nature s'endort
TTITLE3=La galaxie
TTITLE4=Au bord du ruisseau
TTITLE5=Le rivage
TTITLE6=Le voyage en mer
TTITLE7=Dauphins et baleines
EXTD=YEAR: 2002
EXTT0=
EXTT1=
EXTT2=
EXTT3=
EXTT4=
EXTT5=
EXTT6=
EXTT7=
PLAYORDER=
